<svg width="64" height="64" viewBox="0 0 64 64" fill="none" xmlns="http://www.w3.org/2000/svg">
<path d="M63.4595 31.7776C63.5126 5.83313 33.5677 -9.10733 13.0009 6.11204C-6.71975 20.2803 -3.37474 51.0607 18.7633 60.7852C39.3627 70.1945 63.5812 54.6828 63.4595 31.7776ZM60.939 27.9904L45.2809 36.6745V5.6082C49.4988 7.80424 53.1246 10.9855 55.8505 14.8821C58.5764 18.7786 60.322 23.2753 60.939 27.9904ZM20.2875 37.6257V24.9076L31.4108 18.3393L43.0117 24.8406V37.9331L31.7225 44.194L20.2875 37.6257ZM43.0117 4.54066V22.2391L15.7628 6.96847C19.7685 4.38711 24.3413 2.81747 29.0879 2.39456C33.8345 1.97165 38.6128 2.70814 43.0117 4.54066ZM13.7076 8.41821L29.1208 17.056L2.22201 32.94C2.03655 28.2321 2.98272 23.5484 4.98118 19.2816C6.97964 15.0149 9.9721 11.2896 13.7076 8.41821ZM2.42964 35.4526L18.0184 26.2475V57.9041C13.8046 55.6931 10.1869 52.4974 7.47286 48.5886C4.75884 44.6798 3.02874 40.1734 2.42964 35.4526ZM20.2875 58.9815V40.242L48.1496 56.2469C44.0968 58.9784 39.4281 60.6585 34.5642 61.1359C29.7003 61.6133 24.794 60.8729 20.2875 58.9815ZM50.1388 54.7726L34.0212 45.5145L61.1571 30.4642C61.362 35.0971 60.471 39.713 58.5565 43.9368C56.642 48.1606 53.758 51.8731 50.1388 54.7726Z" fill="white"/>
</svg>
