<svg width="64" height="64" viewBox="0 0 64 64" fill="none" xmlns="http://www.w3.org/2000/svg">
<path d="M47.6958 58.3944L45.3576 59.7886H48.0799H61.3093C61.7126 59.7886 62.0994 59.9488 62.3846 60.234C62.6698 60.5192 62.83 60.906 62.83 61.3093C62.83 61.7126 62.6698 62.0994 62.3846 62.3846C62.0994 62.6698 61.7126 62.83 61.3093 62.83H31.79C25.6509 62.83 19.6496 61.0095 14.5451 57.5988C9.44061 54.1881 5.46214 49.3403 3.11279 43.6685C0.763449 37.9967 0.148754 31.7556 1.34644 25.7344C2.54412 19.7132 5.5004 14.1824 9.84142 9.84142C14.1824 5.5004 19.7132 2.54412 25.7344 1.34644C31.7556 0.148754 37.9967 0.763449 43.6685 3.11279C49.3403 5.46214 54.1881 9.44061 57.5988 14.5451C61.0094 19.6493 62.8298 25.6503 62.83 31.7891C62.8232 37.1538 61.4253 42.4252 58.7727 47.0883C56.1202 51.7514 52.3036 55.6469 47.6958 58.3944ZM31.79 59.7886H31.7908C39.2138 59.7803 46.3303 56.8279 51.5791 51.5791C56.8279 46.3303 59.7803 39.2138 59.7886 31.7908V31.79C59.7886 26.2524 58.1465 20.8392 55.07 16.2348C51.9934 11.6305 47.6207 8.04185 42.5046 5.92271C37.3885 3.80356 31.759 3.2491 26.3278 4.32943C20.8966 5.40976 15.9077 8.07636 11.992 11.992C8.07636 15.9077 5.40976 20.8966 4.32943 26.3278C3.2491 31.759 3.80356 37.3885 5.92271 42.5046C8.04185 47.6207 11.6305 51.9934 16.2348 55.07C20.8392 58.1465 26.2524 59.7886 31.79 59.7886Z" stroke="white" stroke-width="1.5"/>
<path d="M35.5829 31.79C35.5829 33.8839 33.8854 35.5814 31.7914 35.5814C29.6975 35.5814 28 33.8839 28 31.79C28 29.696 29.6975 27.9985 31.7914 27.9985C33.8854 27.9985 35.5829 29.696 35.5829 31.79Z" stroke="white" stroke-width="1.5"/>
<path d="M31.7883 43.8936C30.5895 43.8936 29.4176 44.2492 28.4208 44.9152C27.4238 45.5813 26.6468 46.5281 26.188 47.6358C25.7292 48.7435 25.6091 49.9624 25.843 51.1384C26.077 52.3143 26.6543 53.3945 27.5021 54.2423C28.3499 55.0901 29.4301 55.6674 30.606 55.9014C31.782 56.1353 33.0009 56.0152 34.1086 55.5564C35.2163 55.0976 36.1631 54.3206 36.8292 53.3236C37.4952 52.327 37.8507 51.1552 37.8508 49.9565L31.7883 43.8936ZM31.7883 43.8936C33.3956 43.8954 34.9366 44.5348 36.0731 45.6713C37.2097 46.8079 37.8491 48.349 37.8508 49.9565L31.7883 43.8936ZM31.7887 52.9764H31.7894C32.5901 52.9757 33.3579 52.6573 33.9241 52.0911C34.4903 51.5249 34.8087 50.7571 34.8094 49.9564V49.9557C34.8094 49.3583 34.6323 48.7742 34.3003 48.2775L33.6767 48.6942L34.3003 48.2775C33.9684 47.7807 33.4966 47.3935 32.9447 47.1649C32.3927 46.9363 31.7854 46.8765 31.1994 46.993C30.6134 47.1096 30.0752 47.3973 29.6527 47.8197C29.2303 48.2422 28.9426 48.7804 28.826 49.3664C28.7095 49.9523 28.7693 50.5597 28.9979 51.1117C29.2266 51.6636 29.6137 52.1354 30.1105 52.4673L30.5272 51.8437L30.1105 52.4673C30.6072 52.7993 31.1913 52.9764 31.7887 52.9764Z" stroke="white" stroke-width="1.5"/>
<path d="M49.9563 25.7278C48.7574 25.7279 47.5855 26.0834 46.5887 26.7494C45.5918 27.4156 44.8148 28.3623 44.356 29.47C43.8972 30.5778 43.7771 31.7967 44.011 32.9726C44.2449 34.1485 44.8223 35.2287 45.6701 36.0765C46.5179 36.9243 47.5981 37.5017 48.774 37.7356C49.95 37.9695 51.1688 37.8494 52.2766 37.3906C53.3843 36.9318 54.331 36.1548 54.9972 35.1579C55.6631 34.1612 56.0187 32.9894 56.0188 31.7907L49.9563 25.7278ZM49.9563 25.7278C51.5636 25.7297 53.1045 26.369 54.2411 27.5055C55.3777 28.6422 56.017 30.1833 56.0188 31.7907L49.9563 25.7278ZM49.9567 34.8106H49.9574C50.7581 34.8099 51.5258 34.4915 52.092 33.9253C52.6583 33.3591 52.9767 32.5913 52.9774 31.7906V31.7899C52.9774 31.1925 52.8002 30.6085 52.4683 30.1117C52.1364 29.6149 51.6646 29.2278 51.1127 28.9991C50.5607 28.7705 49.9533 28.7107 49.3674 28.8273C48.7814 28.9438 48.2432 29.2315 47.8207 29.654C47.3983 30.0764 47.1106 30.6147 46.994 31.2006C46.8775 31.7866 46.9373 32.3939 47.1659 32.9459C47.3945 33.4979 47.7817 33.9696 48.2785 34.3016C48.7752 34.6335 49.3592 34.8106 49.9567 34.8106Z" stroke="white" stroke-width="1.5"/>
<path d="M13.6243 25.728C12.4254 25.7281 11.2535 26.0836 10.2567 26.7497C9.25978 27.4158 8.48279 28.3626 8.02396 29.4703C7.56513 30.578 7.44508 31.7969 7.67899 32.9728C7.91289 34.1488 8.49026 35.2289 9.33806 36.0768C10.1859 36.9246 11.266 37.5019 12.442 37.7358C13.6179 37.9697 14.8368 37.8497 15.9445 37.3909C17.0522 36.932 17.999 36.155 18.6651 35.1581C19.3311 34.1614 19.6866 32.9897 19.6868 31.791L13.6243 25.728ZM13.6243 25.728C15.2316 25.7299 16.7725 26.3692 17.909 27.5058C19.0457 28.6424 19.685 30.1835 19.6868 31.7909L13.6243 25.728ZM13.6246 34.8109H13.6253C14.4261 34.8102 15.1938 34.4918 15.76 33.9255C16.3262 33.3593 16.6446 32.5916 16.6454 31.7908V31.7902C16.6454 31.1927 16.4682 30.6087 16.1363 30.1119C15.8044 29.6152 15.3326 29.228 14.7806 28.9994C14.2287 28.7708 13.6213 28.7109 13.0353 28.8275C12.4494 28.9441 11.9111 29.2317 11.4887 29.6542C11.0662 30.0767 10.7785 30.6149 10.662 31.2009C10.5454 31.7868 10.6052 32.3942 10.8339 32.9461C11.0625 33.4981 11.4497 33.9699 11.9464 34.3018L12.3631 33.6782L11.9464 34.3018C12.4432 34.6337 13.0272 34.8109 13.6246 34.8109Z" stroke="white" stroke-width="1.5"/>
<path d="M31.7883 7.56201C30.5895 7.56209 29.4176 7.91762 28.4208 8.58367C27.4238 9.24978 26.6468 10.1966 26.188 11.3043C25.7292 12.412 25.6091 13.6309 25.843 14.8068C26.077 15.9828 26.6543 17.0629 27.5021 17.9107C28.3499 18.7585 29.4301 19.3359 30.606 19.5698C31.782 19.8037 33.0009 19.6837 34.1086 19.2248C35.2163 18.766 36.1631 17.989 36.8292 16.9921C37.4952 15.9954 37.8507 14.8237 37.8508 13.625L31.7883 7.56201ZM31.7883 7.56201C33.3956 7.56389 34.9366 8.20322 36.0731 9.33976C37.2097 10.4764 37.8491 12.0175 37.8508 13.6249L31.7883 7.56201ZM31.7887 16.6449H31.7894C32.5901 16.6441 33.3579 16.3257 33.9241 15.7595C34.4903 15.1933 34.8087 14.4256 34.8094 13.6248V13.6242C34.8094 13.0267 34.6323 12.4427 34.3003 11.9459L33.6767 12.3626L34.3003 11.9459C33.9684 11.4492 33.4966 11.062 32.9447 10.8334C32.3927 10.6047 31.7854 10.5449 31.1994 10.6615C30.6134 10.778 30.0752 11.0657 29.6527 11.4882C29.2303 11.9106 28.9426 12.4489 28.826 13.0348C28.7095 13.6208 28.7693 14.2282 28.9979 14.7801C29.2266 15.3321 29.6137 15.8039 30.1105 16.1358C30.6072 16.4677 31.1913 16.6449 31.7887 16.6449Z" stroke="white" stroke-width="1.5"/>
</svg>
