<svg width="95" height="64" viewBox="0 0 95 64" fill="none" xmlns="http://www.w3.org/2000/svg">
<path d="M94.3594 3.83298C91.6006 2.73954 87.6218 1.58562 84.5238 1.81918C84.1828 0.767671 83.2057 0 82.042 0C80.8797 0 79.9035 0.765817 79.5614 1.8151C76.4681 1.59323 72.4485 2.75345 69.7245 3.83316C69.3472 3.98288 69.0993 4.34723 69.0993 4.75296C69.0993 5.15869 69.3472 5.52304 69.7245 5.67275C72.424 6.74263 76.3757 7.89266 79.4217 7.69731V11.0106C78.2759 11.3225 77.4265 12.3614 77.4265 13.6046V15.6367H71.1773C63.2004 15.6367 62.1036 9.96006 53.4025 9.96006H41.5878C32.749 9.96006 31.9344 15.6367 23.813 15.6367H17.5585V14.0364C17.5585 12.7933 16.7092 11.7546 15.5632 11.4425V8.12956C18.6074 8.32899 22.6413 7.14372 25.2604 6.10557C25.6378 5.95585 25.8856 5.5915 25.8856 5.18577C25.8856 4.77986 25.6378 4.41569 25.2604 4.26597C22.5281 3.18311 18.5334 2.01212 15.4269 2.25812C15.088 1.20308 14.1092 0.432071 12.9428 0.432071C11.7768 0.432071 10.7979 1.2029 10.4589 2.25756C7.39955 2.01361 3.32021 3.19554 0.625194 4.26597C0.247851 4.41569 0 4.78004 0 5.18577C0 5.59168 0.247851 5.95585 0.625194 6.10557C3.30759 7.17118 7.28286 8.3277 10.3224 8.12975V11.4425C9.17662 11.7544 8.32714 12.7933 8.32714 14.0364V25.7695C8.32714 28.3146 10.3977 30.3852 12.9428 30.3852C17.5987 30.3852 17.5171 25.5159 17.5585 25.4168C23.8906 25.4402 23.8551 25.3669 25.1302 25.4829C22.6858 28.3949 21.1943 32.1296 21.1943 36.2204V61.6013H19.9194C19.373 61.6013 18.93 62.0437 18.93 62.5906C18.93 63.1375 19.373 63.58 19.9194 63.58H24.448C24.9944 63.58 25.4374 63.1375 25.4374 62.5906C25.4374 62.0437 24.9944 61.6013 24.448 61.6013H23.1732V36.2201C23.1732 32.1958 24.7978 28.5513 27.413 25.8808C32.8364 27.2842 34.0707 31.0931 41.5876 31.0931H43.6743V37.5552H37.543C35.5882 37.5552 33.9979 39.1457 33.9979 41.1003V51.3935C33.9979 53.3483 35.5884 54.9386 37.543 54.9386H40.1682C41.6709 57.4204 44.3886 59.0884 47.4958 59.0884C50.6031 59.0884 53.3205 57.4204 54.823 54.9386H57.4447C59.3995 54.9386 60.9898 53.3482 60.9898 51.3935V41.1003C60.9898 39.1455 59.3994 37.5552 57.4447 37.5552H51.313V31.0931H53.4031C61.0497 31.0931 62.1506 27.2963 67.5519 25.8879C70.1731 28.5578 71.8142 32.1916 71.8142 36.2199V61.6007H70.5388C69.9924 61.6007 69.5494 62.0432 69.5494 62.5901C69.5494 63.137 69.9924 63.5794 70.5388 63.5794H75.068C75.6143 63.5794 76.0574 63.137 76.0574 62.5901C76.0574 62.0432 75.6143 61.6007 75.068 61.6007H73.7931V36.2201C73.7931 32.1318 72.308 28.3946 69.8681 25.4818C71.1276 25.3678 71.0966 25.4396 77.4352 25.4166C77.4786 27.9245 79.525 29.9531 82.0429 29.9531C84.588 29.9531 86.6586 27.8825 86.6586 25.3374V13.6044C86.6586 12.3612 85.8091 11.3221 84.6633 11.0105V7.69731C87.7147 7.89451 91.7456 6.70905 94.3605 5.67257C94.7378 5.52286 94.9857 5.1585 94.9857 4.75277C94.9853 4.34686 94.7365 3.98269 94.3594 3.83298ZM81.4001 2.62043C81.4001 2.26684 81.688 1.97891 82.0416 1.97891C82.3952 1.97891 82.6831 2.26684 82.6831 2.62043V10.906H81.3999L81.4001 2.62043ZM73.1544 4.75296C75.237 4.12647 77.3218 3.64264 79.4213 3.79105V5.71654C77.3185 5.86606 75.2249 5.37556 73.1544 4.75296ZM21.8302 5.18559C19.7467 5.81226 17.6505 6.29684 15.5632 6.14916V4.22201C17.6661 4.07248 19.7597 4.56299 21.8302 5.18559ZM12.3013 3.05213C12.3013 2.69854 12.5892 2.41061 12.9428 2.41061C13.2964 2.41061 13.5843 2.69854 13.5843 3.05213V11.3377H12.3011V3.05213H12.3013ZM4.05486 5.18559C6.14564 4.55668 8.21805 4.07805 10.3224 4.22331V6.14916C8.21694 6.29925 6.12059 5.80707 4.05486 5.18559ZM15.5796 25.7693C15.5796 27.2234 14.3969 28.4063 12.9426 28.4063C11.4884 28.4063 10.3057 27.2236 10.3057 25.7693V14.0363C10.3057 13.6391 10.6285 13.3163 11.0257 13.3163C11.4327 13.3163 14.9609 13.3163 14.8592 13.3163C15.2564 13.3163 15.5796 13.6391 15.5796 14.0363V25.7693ZM47.4951 57.1101C43.861 57.1101 40.9048 54.1535 40.9048 50.5194C40.9048 46.8853 43.861 43.9296 47.4951 43.9296C51.1286 43.9296 54.0848 46.8853 54.0848 50.5194C54.0848 54.1533 51.1288 57.1101 47.4951 57.1101ZM59.0103 41.1007V51.3939C59.0103 52.2577 58.308 52.9602 57.4442 52.9602H55.7051C55.9357 52.1857 56.0639 51.3678 56.0639 50.5196C56.0639 45.7948 52.2202 41.9511 47.4954 41.9511C42.7707 41.9511 38.9266 45.7948 38.9266 50.5196C38.9266 51.3678 39.0548 52.1859 39.2854 52.9602H37.543C36.6792 52.9602 35.9768 52.2579 35.9768 51.3939V41.1007C35.9768 40.2369 36.6792 39.5343 37.543 39.5343H57.4446C58.308 39.5341 59.0103 40.2367 59.0103 41.1007ZM49.3335 37.5552H45.6531V31.0931H49.3334V37.5552H49.3335ZM53.4023 29.1144H41.5876C33.6119 29.1144 32.5132 23.4377 23.8134 23.4377H17.5585V17.6151H23.8128C32.6529 17.6151 33.4779 11.9384 41.5876 11.9384H53.4023C61.3803 11.9384 62.4749 17.6151 71.1771 17.6151H77.4263V23.4377H71.1771C62.3381 23.4377 61.5107 29.1144 53.4023 29.1144ZM84.6787 25.3374C84.6787 26.7915 83.496 27.9744 82.0418 27.9744C80.5875 27.9744 79.4048 26.7917 79.4048 25.3374C79.4058 25.7027 79.408 20.0314 79.4048 13.6044C79.4048 13.2072 79.7276 12.8844 80.1248 12.8844H83.9587C84.3559 12.8844 84.6787 13.2072 84.6787 13.6044V25.3374ZM84.6622 5.71635V3.7892C86.7634 3.6393 88.8595 4.13018 90.9292 4.75277C88.854 5.37685 86.7519 5.86532 84.6622 5.71635Z" fill="white"/>
<path d="M37.3382 19.5371H35.4816C34.9352 19.5371 34.4922 19.9796 34.4922 20.5265C34.4922 21.0734 34.9352 21.5158 35.4816 21.5158H37.3382C37.8846 21.5158 38.3276 21.0734 38.3276 20.5265C38.3276 19.9796 37.8846 19.5371 37.3382 19.5371Z" fill="white"/>
<path d="M44.7294 19.5371H42.8722C42.3258 19.5371 41.8828 19.9796 41.8828 20.5265C41.8828 21.0734 42.3258 21.5158 42.8722 21.5158H44.7294C45.2757 21.5158 45.7188 21.0734 45.7188 20.5265C45.7188 19.9796 45.2757 19.5371 44.7294 19.5371Z" fill="white"/>
<path d="M52.1195 19.5371H50.2628C49.7164 19.5371 49.2734 19.9796 49.2734 20.5265C49.2734 21.0734 49.7164 21.5158 50.2628 21.5158H52.1195C52.6658 21.5158 53.1088 21.0734 53.1088 20.5265C53.1088 19.9796 52.666 19.5371 52.1195 19.5371Z" fill="white"/>
<path d="M59.5101 19.5371H57.6534C57.1071 19.5371 56.6641 19.9796 56.6641 20.5265C56.6641 21.0734 57.1071 21.5158 57.6534 21.5158H59.5101C60.0564 21.5158 60.4994 21.0734 60.4994 20.5265C60.4994 19.9796 60.0564 19.5371 59.5101 19.5371Z" fill="white"/>
<path d="M47.4952 45.9087C46.9489 45.9087 46.5059 46.3512 46.5059 46.8981C46.5059 47.445 46.9489 47.8874 47.4952 47.8874C48.9469 47.8874 50.1277 49.0681 50.1277 50.5194C50.1277 51.0663 50.5707 51.5087 51.1171 51.5087C51.6634 51.5087 52.1064 51.0663 52.1064 50.5194C52.1064 47.9772 50.0379 45.9087 47.4952 45.9087Z" fill="white"/>
<path d="M55.4269 42.7111H56.1298C56.6761 42.7111 57.1192 42.2687 57.1192 41.7218C57.1192 41.1749 56.6761 40.7324 56.1298 40.7324H55.4269C54.8805 40.7324 54.4375 41.1749 54.4375 41.7218C54.4375 42.2687 54.8805 42.7111 55.4269 42.7111Z" fill="white"/>
</svg>
