<svg width="87" height="64" viewBox="0 0 87 64" fill="none" xmlns="http://www.w3.org/2000/svg">
<path d="M60.3808 63.58H18.7823C16.1154 63.5772 13.954 61.4157 13.9512 58.7488V47.5263C13.9512 46.9034 14.4561 46.3984 15.0791 46.3984C15.702 46.3984 16.207 46.9034 16.207 47.5263V58.7488C16.2085 60.1706 17.3606 61.3227 18.7823 61.3242H60.3808C61.8025 61.3227 62.9547 60.1706 62.9562 58.7488V36.2916C62.9547 34.8699 61.8025 33.7177 60.3808 33.7162H18.7823C17.3606 33.7179 16.2086 34.8699 16.207 36.2916V38.7641C16.207 39.3871 15.702 39.892 15.0791 39.892C14.4561 39.892 13.9512 39.3871 13.9512 38.7641V36.2916C13.954 33.6247 16.1154 31.4633 18.7823 31.4604H60.3808C63.0477 31.4633 65.2091 33.6247 65.212 36.2916V58.749C65.209 61.4159 63.0477 63.5772 60.3808 63.58Z" fill="white"/>
<path d="M69.6961 50.6257H64.083C63.46 50.6257 62.9551 50.1208 62.9551 49.4978C62.9551 48.8749 63.46 48.3699 64.083 48.3699H68.5682V40.7646H64.083C63.46 40.7646 62.9551 40.2597 62.9551 39.6367C62.9551 39.0137 63.46 38.5088 64.083 38.5088H69.6961C70.3191 38.5088 70.824 39.0137 70.824 39.6367V49.4978C70.824 50.1208 70.3191 50.6257 69.6961 50.6257Z" fill="white"/>
<path d="M85.7205 54.822C85.5714 54.822 85.4237 54.7925 85.2861 54.7351L69.2614 48.0462C68.6865 47.8063 68.4149 47.1457 68.6547 46.5707C68.8946 45.9957 69.5552 45.7242 70.1302 45.9641L84.5926 52.0013V37.1331L70.1302 43.1697C69.5565 43.4124 68.8946 43.1442 68.6519 42.5704C68.4092 41.9967 68.6775 41.3348 69.2512 41.0922C69.2546 41.0907 69.258 41.0893 69.2614 41.0878L85.2861 34.3991C85.8609 34.1592 86.5215 34.4306 86.7613 35.0055C86.8189 35.1431 86.8484 35.2908 86.8484 35.4399V53.6939C86.8484 54.3171 86.3435 54.822 85.7205 54.822Z" fill="white"/>
<path d="M22.7685 33.7164C22.1455 33.7164 21.6406 33.2115 21.6406 32.5885V26.2678C21.6406 25.6448 22.1455 25.1399 22.7685 25.1399C23.3915 25.1399 23.8964 25.6448 23.8964 26.2678V32.5885C23.8964 33.2115 23.3915 33.7164 22.7685 33.7164Z" fill="white"/>
<path d="M55.0888 33.7164C54.4659 33.7164 53.9609 33.2115 53.9609 32.5885V26.2678C53.9609 25.6448 54.4659 25.1399 55.0888 25.1399C55.7118 25.1399 56.2167 25.6448 56.2167 26.2678V32.5885C56.2167 33.2115 55.7118 33.7164 55.0888 33.7164Z" fill="white"/>
<path d="M43.8089 20.3659H34.0615C33.4385 20.3659 32.9336 19.861 32.9336 19.238C32.9336 18.615 33.4385 18.1101 34.0615 18.1101H43.8089C44.4319 18.1101 44.9368 18.615 44.9368 19.238C44.9368 19.861 44.4319 20.3659 43.8089 20.3659Z" fill="white"/>
<path d="M55.0872 27.4014C47.5206 27.4012 41.3865 21.2671 41.3867 13.7005C41.3869 6.13385 47.5209 -0.000187978 55.0876 4.32051e-09C62.6542 0.000187986 68.7881 6.13404 68.7881 13.7007C68.7796 21.264 62.6505 27.3929 55.0872 27.4014ZM55.0872 2.25578C48.7663 2.25597 43.6423 7.37998 43.6425 13.7009C43.6427 20.0218 48.7667 25.1458 55.0876 25.1456C61.4083 25.1454 66.5323 20.0214 66.5323 13.7007C66.5252 7.3828 61.4051 2.26274 55.0872 2.25578Z" fill="white"/>
<path d="M55.0884 19.457C51.9095 19.4572 49.3322 16.8801 49.332 13.701C49.3318 10.5218 51.9089 7.94477 55.088 7.94458C58.2672 7.94439 60.8442 10.5214 60.8444 13.7006C60.8408 16.878 58.2659 19.4534 55.0884 19.457ZM55.0884 10.2006C53.1552 10.2004 51.588 11.7676 51.5878 13.7008C51.5876 15.634 53.1548 17.2012 55.088 17.2014C57.0212 17.2016 58.5885 15.6344 58.5886 13.7011C58.5886 13.701 58.5886 13.701 58.5886 13.7008C58.5864 11.7685 57.0207 10.2028 55.0884 10.2006Z" fill="white"/>
<path d="M22.7699 19.457C19.5907 19.457 17.0137 16.8799 17.0137 13.7008C17.0137 10.5216 19.5907 7.94458 22.7699 7.94458C25.949 7.94458 28.5261 10.5216 28.5261 13.7008C28.5225 16.8784 25.9475 19.4534 22.7699 19.457ZM22.7699 10.2006C20.8367 10.2006 19.2695 11.7678 19.2695 13.701C19.2695 15.6342 20.8367 17.2014 22.7699 17.2014C24.7031 17.2014 26.2703 15.6342 26.2703 13.701V13.7008C26.268 11.7685 24.7021 10.2026 22.7699 10.2006Z" fill="white"/>
<path d="M22.7708 27.4014C15.2042 27.4012 9.07012 21.2671 9.07031 13.7005C9.0705 6.13385 15.2045 -0.000187978 22.7712 4.32051e-09C30.3378 0.000187986 36.4717 6.13404 36.4717 13.7007C36.4632 21.264 30.3341 27.3929 22.7708 27.4014ZM22.7708 2.25578C16.4499 2.25597 11.3259 7.37998 11.3261 13.7009C11.3263 20.0218 16.4503 25.1458 22.7712 25.1456C29.0919 25.1454 34.2159 20.0214 34.2159 13.7007C34.2088 7.3828 29.0887 2.26274 22.7708 2.25578Z" fill="white"/>
<path d="M32.2952 48.6487H8.81734C8.19437 48.6487 7.68945 48.1437 7.68945 47.5208V38.7685C7.68945 38.1455 8.19437 37.6406 8.81734 37.6406H32.2952C35.335 37.6585 37.7846 40.1372 37.7669 43.1769C37.7491 46.1916 35.3096 48.631 32.2952 48.6487ZM9.94542 46.3929H32.2952C34.0891 46.3792 35.5322 44.9138 35.5185 43.1197C35.505 41.3452 34.0697 39.9099 32.2952 39.8964H9.94524L9.94542 46.3929Z" fill="white"/>
<path d="M1.12789 52.3343C0.504919 52.3343 0 51.8293 0 51.2064V35.083C0 34.46 0.504919 33.9551 1.12789 33.9551C1.2967 33.9551 1.46325 33.9929 1.61533 34.0658L9.30511 37.7517C9.69648 37.9394 9.94556 38.3347 9.94556 38.7687V47.5208C9.94556 47.9548 9.69648 48.3502 9.30511 48.5378L1.61533 52.2237C1.46325 52.2967 1.29651 52.3344 1.12789 52.3343ZM2.25578 36.8742V49.4151L7.68959 46.8098V39.4785L2.25578 36.8742Z" fill="white"/>
</svg>
