<svg width="76" height="64" viewBox="0 0 76 64" fill="none" xmlns="http://www.w3.org/2000/svg">
<path d="M61.9734 63.5799C61.4953 63.5799 61.1196 63.2041 61.1196 62.726C61.1196 62.2478 61.4953 61.8721 61.9734 61.8721C64.2789 61.8721 66.1575 59.9936 66.1575 57.6881V29.5954C66.1575 27.2899 64.2789 25.3943 61.9734 25.3943H18.4596C16.1542 25.3943 14.2585 27.2728 14.2585 29.5954V57.6881C14.2585 59.9936 16.1371 61.8721 18.4596 61.8721C18.9378 61.8721 19.3135 62.2478 19.3135 62.726C19.3135 63.2041 18.9378 63.5799 18.4596 63.5799C15.1978 63.5799 12.5508 60.9328 12.5508 57.6881V29.5954C12.5508 26.3336 15.1978 23.6865 18.4596 23.6865H61.9734C65.2182 23.6865 67.8652 26.3336 67.8652 29.5954V57.6881C67.8823 60.9328 65.2353 63.5799 61.9734 63.5799Z" fill="white"/>
<path d="M67.0309 55.2631H51.8147C51.3365 55.2631 50.9608 54.8874 50.9608 54.4093C50.9608 53.9311 51.3365 53.5554 51.8147 53.5554H67.0309C67.509 53.5554 67.8847 53.9311 67.8847 54.4093C67.8847 54.8874 67.492 55.2631 67.0309 55.2631ZM28.6404 55.2631H13.4242C12.946 55.2631 12.5703 54.8874 12.5703 54.4093C12.5703 53.9311 12.946 53.5554 13.4242 53.5554H28.6404C29.1185 53.5554 29.4942 53.9311 29.4942 54.4093C29.4942 54.8874 29.1185 55.2631 28.6404 55.2631ZM67.0309 33.7112H51.8147C51.3365 33.7112 50.9608 33.3355 50.9608 32.8573C50.9608 32.3791 51.3365 32.0034 51.8147 32.0034H67.0309C67.509 32.0034 67.8847 32.3791 67.8847 32.8573C67.8847 33.3355 67.492 33.7112 67.0309 33.7112ZM28.6404 33.7112H13.4242C12.946 33.7112 12.5703 33.3355 12.5703 32.8573C12.5703 32.3791 12.946 32.0034 13.4242 32.0034H28.6404C29.1185 32.0034 29.4942 32.3791 29.4942 32.8573C29.4942 33.3355 29.1185 33.7112 28.6404 33.7112Z" fill="white"/>
<path d="M40.2166 60.3182C31.0288 60.3182 23.5488 52.8382 23.5488 43.6504C23.5488 34.4627 31.0288 26.9827 40.2166 26.9827C49.4044 26.9827 56.8844 34.4627 56.8844 43.6504C56.8844 52.8382 49.4214 60.3182 40.2166 60.3182ZM40.2166 28.6733C31.9681 28.6733 25.2566 35.3849 25.2566 43.6334C25.2566 51.8818 31.9681 58.5934 40.2166 58.5934C48.4651 58.5934 55.1766 51.8818 55.1766 43.6334C55.1766 35.3849 48.4651 28.6733 40.2166 28.6733Z" fill="white"/>
<path d="M40.2167 56.6976C33.01 56.6976 27.1523 50.84 27.1523 43.6332C27.1523 36.4265 33.01 30.5688 40.2167 30.5688C47.4235 30.5688 53.2811 36.4265 53.2811 43.6332C53.2811 50.84 47.4235 56.6976 40.2167 56.6976ZM40.2167 32.2766C33.9663 32.2766 28.8601 37.3657 28.8601 43.6332C28.8601 49.9007 33.9492 54.9899 40.2167 54.9899C46.4671 54.9899 51.5733 49.9007 51.5733 43.6332C51.5733 37.3657 46.4842 32.2766 40.2167 32.2766Z" fill="white"/>
<path d="M48.8589 44.4872C48.3808 44.4872 48.0051 44.1115 48.0051 43.6334C48.0051 39.3469 44.5212 35.863 40.2347 35.863C39.7566 35.863 39.3809 35.4873 39.3809 35.0092C39.3809 34.531 39.7566 34.1553 40.2347 34.1553C45.4605 34.1553 49.7128 38.4076 49.7128 43.6334C49.7128 44.1115 49.32 44.4872 48.8589 44.4872Z" fill="white"/>
<path d="M54.3395 25.3944C53.9467 25.3944 53.6052 25.1382 53.5027 24.7454L51.3168 15.8822C51.1972 15.4211 51.4876 14.96 51.9487 14.8404C52.4098 14.7209 52.8709 15.0112 52.9733 15.4723L55.1593 24.3356C55.2788 24.7967 54.9885 25.2578 54.5274 25.3773C54.4762 25.3944 54.4078 25.3944 54.3395 25.3944ZM26.1102 25.3944C26.0419 25.3944 25.9736 25.3773 25.9053 25.3773C25.4442 25.2578 25.1709 24.7967 25.2734 24.3356L27.4594 15.4723C27.5789 15.0112 28.04 14.738 28.5011 14.8404C28.9622 14.96 29.2354 15.4211 29.133 15.8822L26.9299 24.7454C26.8446 25.1382 26.4859 25.3944 26.1102 25.3944Z" fill="white"/>
<path d="M53.8286 16.5311H26.6239C26.2141 16.5311 25.8554 16.2237 25.7871 15.8139L23.2938 1.00758C23.2596 0.768493 23.3279 0.512329 23.4816 0.307397C23.6353 0.102466 23.8915 0 24.1306 0H56.3219C56.5781 0 56.8172 0.119543 56.9709 0.307397C57.1246 0.495251 57.2099 0.751416 57.1587 1.00758L54.6654 15.8139C54.5971 16.2237 54.2384 16.5311 53.8286 16.5311ZM27.3412 14.8234H53.1113L55.3143 1.72484H25.1382L27.3412 14.8234Z" fill="white"/>
<path d="M48.4154 7.56543H32.0551C31.5769 7.56543 31.2012 7.18972 31.2012 6.71155C31.2012 6.23337 31.5769 5.85767 32.0551 5.85767H48.4154C48.8936 5.85767 49.2693 6.23337 49.2693 6.71155C49.2693 7.18972 48.8765 7.56543 48.4154 7.56543Z" fill="white"/>
<path d="M48.4154 10.7075H32.0551C31.5769 10.7075 31.2012 10.3318 31.2012 9.85364C31.2012 9.37546 31.5769 8.99976 32.0551 8.99976H48.4154C48.8936 8.99976 49.2693 9.37546 49.2693 9.85364C49.2693 10.3318 48.8765 10.7075 48.4154 10.7075Z" fill="white"/>
<path d="M19.538 44.4871H13.4242C12.946 44.4871 12.5703 44.1114 12.5703 43.6332C12.5703 43.155 12.946 42.7793 13.4242 42.7793H19.538C20.0162 42.7793 20.3919 43.155 20.3919 43.6332C20.3919 44.1114 20.0162 44.4871 19.538 44.4871Z" fill="white"/>
<path d="M67.0282 44.4871H60.9144C60.4363 44.4871 60.0605 44.1114 60.0605 43.6332C60.0605 43.155 60.4363 42.7793 60.9144 42.7793H67.0282C67.5064 42.7793 67.8821 43.155 67.8821 43.6332C67.8821 44.1114 67.4893 44.4871 67.0282 44.4871Z" fill="white"/>
<path d="M20.9726 29.5615H17.0277C16.5495 29.5615 16.1738 29.1858 16.1738 28.7076C16.1738 28.2295 16.5495 27.8538 17.0277 27.8538H20.9897C21.4679 27.8538 21.8436 28.2295 21.8436 28.7076C21.8436 29.1858 21.4508 29.5615 20.9726 29.5615Z" fill="white"/>
<path d="M64.8096 21.2103C64.4852 21.2103 64.1778 21.0225 64.0411 20.7151L62.0601 16.531L57.8761 14.55C57.5687 14.4134 57.3809 14.106 57.3809 13.7816C57.3809 13.4571 57.5687 13.1497 57.8761 13.0131L62.0601 11.0321L64.0411 6.84803C64.1778 6.54064 64.4852 6.35278 64.8096 6.35278C65.1341 6.35278 65.4415 6.54064 65.5781 6.84803L67.5591 11.0321L71.7431 13.0131C72.0505 13.1497 72.2384 13.4571 72.2384 13.7816C72.2384 14.106 72.0505 14.4134 71.7431 14.55L67.5591 16.531L65.5781 20.7151C65.4415 21.0225 65.1512 21.2103 64.8096 21.2103ZM60.2328 13.7816L63.0677 15.1307C63.2385 15.2161 63.3922 15.3527 63.4776 15.5405L64.8267 18.3754L66.1758 15.5405C66.2612 15.3698 66.3979 15.2161 66.5857 15.1307L69.4206 13.7816L66.5857 12.4324C66.4149 12.347 66.2612 12.2104 66.1758 12.0226L64.8267 9.18767L63.4776 12.0396C63.3922 12.2104 63.2556 12.3641 63.0677 12.4495L60.2328 13.7816Z" fill="white"/>
<path d="M8.8451 28.5369C8.52063 28.5369 8.21323 28.349 8.07661 28.0416L6.67624 25.0872L3.72181 23.6868C3.41442 23.5502 3.22656 23.2428 3.22656 22.9183C3.22656 22.5939 3.41442 22.2865 3.72181 22.1498L6.67624 20.7495L8.07661 17.7951C8.21323 17.4877 8.52063 17.2998 8.8451 17.2998C9.16958 17.2998 9.47697 17.4877 9.61359 17.7951L11.014 20.7495L13.9684 22.1498C14.2758 22.2865 14.4636 22.5939 14.4636 22.9183C14.4636 23.2428 14.2758 23.5502 13.9684 23.6868L11.014 25.0872L9.61359 28.0416C9.47697 28.349 9.18665 28.5369 8.8451 28.5369ZM6.07853 22.9183L7.68382 23.6868C7.8546 23.7722 8.0083 23.9088 8.09369 24.0967L8.86218 25.702L9.63067 24.0967C9.71606 23.9259 9.85268 23.7722 10.0405 23.6868L11.6458 22.9183L10.0405 22.1498C9.86976 22.0645 9.71606 21.9278 9.63067 21.74L8.86218 20.1347L8.09369 21.74C8.0083 21.9108 7.87168 22.0645 7.68382 22.1498L6.07853 22.9183Z" fill="white"/>
<path d="M74.6292 63.5801H0.853881C0.375708 63.5801 0 63.2044 0 62.7262C0 62.248 0.375708 61.8723 0.853881 61.8723H74.6292C75.1074 61.8723 75.4831 62.248 75.4831 62.7262C75.4831 63.2044 75.0903 63.5801 74.6292 63.5801Z" fill="white"/>
</svg>
