<svg width="70" height="64" viewBox="0 0 70 64" fill="none" xmlns="http://www.w3.org/2000/svg">
<path d="M57.962 15.3441L20.3908 0L8.97797 27.9403L8.21618 29.8175L10.1069 30.5929L10.8687 28.7023L21.5062 2.66627L52.5616 15.3441H22.1865V56.8059L2.6527 48.8209L7.18232 37.7208L7.78087 36.2655L5.90367 35.4901L5.30525 36.9592L0 49.9363L22.1865 59.0095V63.58H69.3206V32.715V32.3614V30.6746H67.28V32.3614V32.715V61.5397H24.2268V59.8392V17.3845H62.9544H67.28V22.5128V24.5534H69.3206V22.5128V15.3441H57.962Z" fill="white"/>
<path d="M67.2793 26.5938H69.3199V28.6342H67.2793V26.5938Z" fill="white"/>
<path d="M9.31836 32.4919L8.54702 34.3815L6.65745 33.6102L7.42878 31.7206L9.31836 32.4919Z" fill="white"/>
<path d="M28.334 57.0233H28.9869H38.7674H40.5222H63.0215H63.171V22.1726H28.334V57.0233ZM42.2226 54.983L51.4317 38.2922L53.8394 43.1484H49.5817V45.189H54.846L59.7158 54.9967H42.2226V54.983ZM61.1306 24.2132V53.2282L51.5133 33.8848L39.8828 54.983H32.4284L41.6512 38.2515L43.7598 42.3459L45.569 41.4073L41.7055 33.8985L30.3744 54.5069V24.2132H61.1306Z" fill="white"/>
<path d="M55.5272 33.5174C57.6899 33.5174 59.4447 31.7626 59.4447 29.5998C59.4447 27.4369 57.6899 25.6821 55.5272 25.6821C53.3642 25.6821 51.6094 27.4369 51.6094 29.5998C51.6094 31.7626 53.3642 33.5174 55.5272 33.5174ZM55.5272 27.7227C56.5609 27.7227 57.4044 28.566 57.4044 29.5999C57.4044 30.6336 56.5609 31.4771 55.5272 31.4771C54.4932 31.4771 53.65 30.6338 53.65 29.5999C53.65 28.566 54.4932 27.7227 55.5272 27.7227Z" fill="white"/>
</svg>
